HIERARCHY
ROOT hip
{
  OFFSET 0 0 0
  CHANNELS 6 Xposition Yposition Zposition Zrotation Yrotation Xrotation
  JOINT abdomen
  {
    OFFSET 0 20.6881 -0.73152
    CHANNELS 3 Zrotation Xrotation Yrotation
    JOINT chest
    {
      OFFSET 0 11.7043 -0.48768
      CHANNELS 3 Zrotation Xrotation Yrotation
      JOINT neck
      {
        OFFSET 0 22.1894 -2.19456
        CHANNELS 3 Zrotation Xrotation Yrotation
        JOINT head
        {
          OFFSET -0.24384 7.07133 1.2192
          CHANNELS 3 Zrotation Xrotation Yrotation
          JOINT leftEye
          {
            OFFSET 4.14528 8.04674 8.04672
            CHANNELS 3 Zrotation Xrotation Yrotation
            End Site
            {
              OFFSET 1 0 0
            }
          }
          JOINT rightEye
          {
            OFFSET -3.6576 8.04674 8.04672
            CHANNELS 3 Zrotation Xrotation Yrotation
            End Site
            {
              OFFSET 1 0 0
            }
          }
        }
      }
      JOINT rCollar
      {
        OFFSET -2.68224 19.2634 -4.8768
        CHANNELS 3 Zrotation Xrotation Yrotation
        JOINT rShldr
        {
          OFFSET -8.77824 -1.95073 1.46304
          CHANNELS 3 Zrotation Xrotation Yrotation
          JOINT rForeArm
          {
            OFFSET -28.1742 -1.7115 0.48768
            CHANNELS 3 Zrotation Xrotation Yrotation
            JOINT rHand
            {
              OFFSET -22.5879 0.773209 7.07136
              CHANNELS 3 Zrotation Xrotation Yrotation
              JOINT rThumb1
              {
                OFFSET -1.2192 -0.487915 3.41376
                CHANNELS 3 Zrotation Xrotation Yrotation
                JOINT rThumb2
                {
                  OFFSET -3.37035 -0.52449 3.41376
                  CHANNELS 3 Zrotation Xrotation Yrotation
                  End Site
                  {
                    OFFSET -1.78271 -1.18214 1.43049
                  }
                }
              }
              JOINT rIndex1
              {
                OFFSET -7.75947 0.938293 5.60832
                CHANNELS 3 Zrotation Xrotation Yrotation
                JOINT rIndex2
                {
                  OFFSET -2.54057 -0.884171 1.56538
                  CHANNELS 3 Zrotation Xrotation Yrotation
                  End Site
                  {
                    OFFSET -1.62519 -0.234802 1.16502
                  }
                }
              }
              JOINT rMid1
              {
                OFFSET -8.24714 1.18213 3.41376
                CHANNELS 3 Zrotation Xrotation Yrotation
                JOINT rMid2
                {
                  OFFSET -3.10165 -0.590103 1.0647
                  CHANNELS 3 Zrotation Xrotation Yrotation
                  End Site
                  {
                    OFFSET -2.48547 -0.328903 0.83742
                  }
                }
              }
              JOINT rRing1
              {
                OFFSET -8.82822 0.546677 1.51678
                CHANNELS 3 Zrotation Xrotation Yrotation
                JOINT rRing2
                {
                  OFFSET -2.60934 -0.819778 -0.0198488
                  CHANNELS 3 Zrotation Xrotation Yrotation
                  End Site
                  {
                    OFFSET -2.33842 -0.294052 0.168128
                  }
                }
              }
              JOINT rPinky1
              {
                OFFSET -8.27202 -0.0477905 -0.4584
                CHANNELS 3 Zrotation Xrotation Yrotation
                JOINT rPinky2
                {
                  OFFSET -1.82734 -0.647385 -0.700984
                  CHANNELS 3 Zrotation Xrotation Yrotation
                  End Site
                  {
                    OFFSET -1.69225 -0.51767 -0.607171
                  }
                }
              }
            }
          }
        }
      }
      JOINT lCollar
      {
        OFFSET 2.68224 19.2634 -4.8768
        CHANNELS 3 Zrotation Xrotation Yrotation
        JOINT lShldr
        {
          OFFSET 8.77824 -1.95073 1.46304
          CHANNELS 3 Zrotation Xrotation Yrotation
          JOINT lForeArm
          {
            OFFSET 28.1742 -1.7115 0.48768
            CHANNELS 3 Zrotation Xrotation Yrotation
            JOINT lHand
            {
              OFFSET 22.5879 0.773209 7.07136
              CHANNELS 3 Zrotation Xrotation Yrotation
              JOINT lThumb1
              {
                OFFSET 1.2192 -0.487915 3.41376
                CHANNELS 3 Zrotation Xrotation Yrotation
                JOINT lThumb2
                {
                  OFFSET 3.37035 -0.52449 3.41376
                  CHANNELS 3 Zrotation Xrotation Yrotation
                  End Site
                  {
                    OFFSET 1.78271 -1.18214 1.43049
                  }
                }
              }
              JOINT lIndex1
              {
                OFFSET 7.75947 0.938293 5.60832
                CHANNELS 3 Zrotation Xrotation Yrotation
                JOINT lIndex2
                {
                  OFFSET 2.54057 -0.884171 1.56538
                  CHANNELS 3 Zrotation Xrotation Yrotation
                  End Site
                  {
                    OFFSET 1.62519 -0.234802 1.16502
                  }
                }
              }
              JOINT lMid1
              {
                OFFSET 8.24714 1.18213 3.41376
                CHANNELS 3 Zrotation Xrotation Yrotation
                JOINT lMid2
                {
                  OFFSET 3.10165 -0.590103 1.0647
                  CHANNELS 3 Zrotation Xrotation Yrotation
                  End Site
                  {
                    OFFSET 2.48547 -0.328903 0.83742
                  }
                }
              }
              JOINT lRing1
              {
                OFFSET 8.82822 0.546677 1.51678
                CHANNELS 3 Zrotation Xrotation Yrotation
                JOINT lRing2
                {
                  OFFSET 2.60934 -0.819778 -0.0198488
                  CHANNELS 3 Zrotation Xrotation Yrotation
                  End Site
                  {
                    OFFSET 2.33842 -0.294052 0.168128
                  }
                }
              }
              JOINT lPinky1
              {
                OFFSET 8.27202 -0.0477905 -0.4584
                CHANNELS 3 Zrotation Xrotation Yrotation
                JOINT lPinky2
                {
                  OFFSET 1.82734 -0.647385 -0.700984
                  CHANNELS 3 Zrotation Xrotation Yrotation
                  End Site
                  {
                    OFFSET 1.69225 -0.51767 -0.607171
                  }
                }
              }
            }
          }
        }
      }
    }
  }
  JOINT rButtock
  {
    OFFSET -8.77824 4.35084 1.2192
    CHANNELS 3 Zrotation Xrotation Yrotation
    JOINT rThigh
    {
      OFFSET 0 -1.70687 -2.19456
      CHANNELS 3 Zrotation Xrotation Yrotation
      JOINT rShin
      {
        OFFSET 0 -36.8199 0.73152
        CHANNELS 3 Zrotation Xrotation Yrotation
        JOINT rFoot
        {
          OFFSET 0.73152 -45.1104 -5.12064
          CHANNELS 3 Zrotation Xrotation Yrotation
          End Site
          {
            OFFSET -1.1221 -3.69964 12.103
          }
        }
      }
    }
  }
  JOINT lButtock
  {
    OFFSET 8.77824 4.35084 1.2192
    CHANNELS 3 Zrotation Xrotation Yrotation
    JOINT lThigh
    {
      OFFSET 0 -1.70687 -2.19456
      CHANNELS 3 Zrotation Xrotation Yrotation
      JOINT lShin
      {
        OFFSET 0 -36.8199 0.73152
        CHANNELS 3 Zrotation Xrotation Yrotation
        JOINT lFoot
        {
          OFFSET -0.73152 -45.1104 -5.12064
          CHANNELS 3 Zrotation Xrotation Yrotation
          End Site
          {
            OFFSET 1.1221 -3.69964 12.103
          }
        }
      }
    }
  }
}
MOTION
Frames:	4
Frame Time:	0.03333
0.03939999824069673 60.53929901123047 0.4249999955063686 -158.71999740600586 -66.87240064144135 161.20999932289124 1.6907700151205063 11.779399663209915 13.503999710083008 -0.5289790173992515 -13.991900235414505 3.7348000332713127 -0.08249169972259551 13.019300401210785 9.70650002360344 5.269180163741112 -18.67409974336624 19.755999594926834 0.0 0.0 0.0 0.0 0.0 0.0 0.0 2.5579538487363607e-12 0.0 47.450600266456604 82.49580144882202 15.932600498199463 -26.54819905757904 -45.10990083217621 93.68659973144531 -40.33710032701492 -79.26349818706512 -47.834102511405945 -1.1050360626541078e-09 -4.629896466212813e-10 3.4788172342814505e-10 -1.9107915250060614e-09 -9.234213393938262e-10 5.32054400537163e-10 -1.1050360626541078e-09 -4.629896466212813e-10 3.4788172342814505e-10 7.7309102565050125 5.474880114197731 0.41731400415301323 -1.1050360626541078e-09 -4.629896466212813e-10 3.4788172342814505e-10 2.905540131032467 0.9651830233633518 0.102901995414868 -1.1050360626541078e-09 -4.629896466212813e-10 3.4788172342814505e-10 10.27859978377819 0.7318009994924068 0.025912300043273717 -1.1050360626541078e-09 -4.629896466212813e-10 3.4788172342814505e-10 2.221670038998127 -0.733487019315362 -0.2089200052432716 0.0 2.5579538487363607e-12 0.0 -67.33849883079529 5.358630158007145 -36.747001111507416 28.389599919319153 -34.08749967813492 -73.8441002368927 0.4676169902086258 19.066899865865707 -2.784249968826771 3.6067149267182685e-10 -5.576339390245266e-10 -9.106315701501444e-10 6.113509698479902e-10 -9.617906471248716e-10 -1.5859313862165436e-09 3.6067149267182685e-10 -5.576339390245266e-10 -9.106315701501444e-10 -7.7309102565050125 5.474880114197731 -0.41731400415301323 3.6067149267182685e-10 -5.576339390245266e-10 -9.106315701501444e-10 -2.905540131032467 0.9651830233633518 -0.102901995414868 3.6067149267182685e-10 -5.576339390245266e-10 -9.106315701501444e-10 -10.27859978377819 0.7318009994924068 -0.025912300043273717 3.6067149267182685e-10 -5.576339390245266e-10 -9.106315701501444e-10 -2.221670038998127 -0.733487019315362 0.2089200052432716 0.0 0.0 0.0 -14.064900577068329 -39.26289975643158 -25.999899208545685 -56.462098360061646 88.97310018539429 58.18760097026825 -23.69739979505539 -24.546900987625122 -34.966700971126556 0.0 0.0 0.0 83.25140118598938 -43.23469877243042 76.58440053462982 4.433639869093895 78.12679946422577 -4.288590028882027 -0.27780600590631366 1.4380199275910854 -5.208530053496361
0.043899998046981636 60.495399475097656 0.4229999954113737 -158.81299495697021 -66.87679946422577 161.32000207901 1.6932899504899979 11.760400235652924 13.498100191354752 -0.5403970135375857 -13.961100429296494 3.731279969215393 -0.07170990051236004 13.011999428272247 9.709019958972931 5.224949866533279 -18.69829997420311 19.758499413728714 0.0 0.0 0.0 0.0 0.0 0.0 0.0 -2.5579538487363607e-12 0.0 47.923999428749084 82.45969891548157 15.512400269508362 -26.540798842906952 -45.11339843273163 93.69389533996582 -39.923299849033356 -79.19299900531769 -47.412899136543274 -1.7138290786533616e-09 3.325340003357269e-11 1.084572431864217e-09 -2.9979219107190147e-09 -1.7905676941154525e-10 1.7394086171407253e-09 -1.7138290786533616e-09 3.325340003357269e-11 1.084572431864217e-09 7.7309102565050125 5.474880114197731 0.41731400415301323 -1.7138290786533616e-09 3.325340003357269e-11 1.084572431864217e-09 2.905540131032467 0.9651830233633518 0.102901995414868 -1.7138290786533616e-09 3.325340003357269e-11 1.084572431864217e-09 10.27859978377819 0.7318009994924068 0.025912300043273717 -1.7138290786533616e-09 3.325340003357269e-11 1.084572431864217e-09 2.221670038998127 -0.733487019315362 -0.2089200052432716 0.0 -2.5579538487363607e-12 0.0 -67.33670175075531 5.280769988894463 -36.72249913215637 28.389200270175934 -34.080601036548615 -73.83259892463684 0.47831099946051836 19.272000342607498 -2.816629931330681 -1.7138290786533616e-10 2.0975221559638157e-10 3.376499080331996e-10 -2.8904878490720876e-10 3.581135388230905e-10 5.832134775118902e-10 -1.7138290786533616e-10 2.0975221559638157e-10 3.376499080331996e-10 -7.7309102565050125 5.474880114197731 -0.41731400415301323 -1.7138290786533616e-10 2.0975221559638157e-10 3.376499080331996e-10 -2.905540131032467 0.9651830233633518 -0.102901995414868 -1.7138290786533616e-10 2.0975221559638157e-10 3.376499080331996e-10 -10.27859978377819 0.7318009994924068 -0.025912300043273717 -1.7138290786533616e-10 2.0975221559638157e-10 3.376499080331996e-10 -2.221670038998127 -0.733487019315362 0.2089200052432716 0.0 0.0 0.0 -14.07430037856102 -39.342400431632996 -26.00580006837845 -59.695597887039185 89.00690138339996 61.42250061035156 -23.726898729801178 -24.5398011803627 -35.001599192619324 0.0 0.0 0.0 83.34090113639832 -43.22250008583069 76.66959822177887 4.455530047416687 78.16980063915253 -4.310000091791153 -0.2841550041921437 1.3558300025761127 -5.199280120432377
0.05539999806933338 60.46689987182617 0.40899999497924 -158.93399477005005 -66.84350252151489 161.4400041103363 1.7063000053167343 11.769600212574005 13.479900062084198 -0.5524099990725517 -13.965599834918976 3.7256500124931335 -0.06766800011973828 13.00830066204071 9.713670238852501 5.1998500898480415 -18.680499494075775 19.760500341653824 0.0 0.0 0.0 0.0 0.0 0.0 0.0 -7.673861546209082e-12 0.0 48.39119732379913 82.50780165195465 15.080199837684631 -26.54980033636093 -45.10609745979309 93.67859601974487 -40.04259914159775 -79.21350181102753 -47.53430128097534 -3.325340003357269e-11 3.849720542348223e-09 2.977458279929124e-09 -2.4300561562995426e-10 6.486970960395411e-09 5.034053174313158e-09 -3.325340003357269e-11 3.849720542348223e-09 2.977458279929124e-09 7.7309102565050125 5.474880114197731 0.41731400415301323 -3.325340003357269e-11 3.849720542348223e-09 2.977458279929124e-09 2.905540131032467 0.9651830233633518 0.102901995414868 -3.325340003357269e-11 3.849720542348223e-09 2.977458279929124e-09 10.27859978377819 0.7318009994924068 0.025912300043273717 -3.325340003357269e-11 3.849720542348223e-09 2.977458279929124e-09 2.221670038998127 -0.733487019315362 -0.2089200052432716 0.0 -7.673861546209082e-12 0.0 -67.30460107326508 5.184140056371689 -36.6484996676445 28.389101028442383 -34.07960057258606 -73.8314026594162 0.4705129796639085 19.122400134801865 -2.79301006346941 -1.972182417375734e-09 2.2663471099804156e-09 4.328057912061922e-09 -3.353477495693369e-09 3.903437573171686e-09 7.49992068449501e-09 -1.972182417375734e-09 2.2663471099804156e-09 4.328057912061922e-09 -7.7309102565050125 5.474880114197731 -0.41731400415301323 -1.972182417375734e-09 2.2663471099804156e-09 4.328057912061922e-09 -2.905540131032467 0.9651830233633518 -0.102901995414868 -1.972182417375734e-09 2.2663471099804156e-09 4.328057912061922e-09 -10.27859978377819 0.7318009994924068 -0.025912300043273717 -1.972182417375734e-09 2.2663471099804156e-09 4.328057912061922e-09 -2.221670038998127 -0.733487019315362 0.2089200052432716 0.0 0.0 0.0 -14.067600220441818 -39.38319951295853 -25.994899570941925 -62.44670212268829 89.03140068054199 64.17510151863098 -23.740001320838928 -24.65359926223755 -34.94489997625351 0.0 0.0 0.0 83.42719852924347 -43.1673002243042 76.73319876194 4.476689994335175 78.21730256080627 -4.330600127577782 -0.2847109967842698 1.2412600312381983 -5.118580162525177
0.06839999833755428 60.44219970703125 0.41499999503139406 -158.87499690055847 -66.77710175514221 161.39999628067017 1.7203100211918354 11.782199889421463 13.46259981393814 -0.568000003695488 -13.97860050201416 3.7200498953461647 -0.07506120018661022 13.00189957022667 9.723000302910805 5.184080041944981 -18.658300191164017 19.77310001850128 0.0 0.0 0.0 0.0 0.0 0.0 0.0 -1.0231815394945443e-11 0.0 48.891799449920654 82.55070090293884 14.596100002527237 -26.560499668121338 -45.09889841079712 93.66380095481873 -40.31849920749664 -79.26039755344391 -47.81519830226898 1.7215029401995707e-09 6.576499345101183e-09 3.980176188633777e-09 2.696083356568124e-09 1.1329177596053341e-08 6.845084499218501e-09 1.7215029401995707e-09 6.576499345101183e-09 3.980176188633777e-09 7.7309102565050125 5.474880114197731 0.41731400415301323 1.7215029401995707e-09 6.576499345101183e-09 3.980176188633777e-09 2.905540131032467 0.9651830233633518 0.102901995414868 1.7215029401995707e-09 6.576499345101183e-09 3.980176188633777e-09 10.27859978377819 0.7318009994924068 0.025912300043273717 1.7215029401995707e-09 6.576499345101183e-09 3.980176188633777e-09 2.221670038998127 -0.733487019315362 -0.2089200052432716 0.0 -1.0231815394945443e-11 0.0 -67.28049874305725 5.084309913218021 -36.566499173641205 28.388899862766266 -34.07579988241196 -73.8252979516983 0.45981100760400295 18.91310065984726 -2.7600700221955776 -3.128377557004569e-09 3.552997895894805e-09 6.93717083777301e-09 -5.3231019592203666e-09 6.126299467723584e-09 1.203261490445584e-08 -3.128377557004569e-09 3.552997895894805e-09 6.93717083777301e-09 -7.7309102565050125 5.474880114197731 -0.41731400415301323 -3.128377557004569e-09 3.552997895894805e-09 6.93717083777301e-09 -2.905540131032467 0.9651830233633518 -0.102901995414868 -3.128377557004569e-09 3.552997895894805e-09 6.93717083777301e-09 -10.27859978377819 0.7318009994924068 -0.025912300043273717 -3.128377557004569e-09 3.552997895894805e-09 6.93717083777301e-09 -2.221670038998127 -0.733487019315362 0.2089200052432716 0.0 0.0 0.0 -14.063599705696106 -39.42609876394272 -25.975499153137207 -64.88709926605225 89.04990255832672 66.61590099334717 -23.742900788784027 -24.725900888442993 -34.90139991044998 0.0 0.0 0.0 83.5040009021759 -43.103600442409515 76.78889751434326 4.498840011656284 78.26600074768066 -4.352239854633808 -0.28232601005584 1.1043900065124035 -5.002180002629757
